Coordinates
version=1
nRows=10
nColumns=40
inDegrees=yes

Units are S.I. units (second, meters, Newtons, ...)
Angles are in degrees.

endheader
time	pelvis_tilt	pelvis_list	pelvis_rotation	pelvis_tx	pelvis_ty	pelvis_tz	hip_flexion_r	hip_adduction_r	hip_rotation_r	knee_angle_r	knee_angle_r_beta	ankle_angle_r	subtalar_angle_r	mtp_angle_r	hip_flexion_l	hip_adduction_l	hip_rotation_l	knee_angle_l	knee_angle_l_beta	ankle_angle_l	subtalar_angle_l	mtp_angle_l	lumbar_extension	lumbar_bending	lumbar_rotation	arm_flex_r	arm_add_r	arm_rot_r	elbow_flex_r	pro_sup_r	wrist_flex_r	wrist_dev_r	arm_flex_l	arm_add_l	arm_rot_l	elbow_flex_l	pro_sup_l	wrist_flex_l	wrist_dev_l
     37.12000000	     -5.33048374	     -3.69727056	      6.81270826	      0.92453810	      0.92151670	      0.45452563	      0.44538102	     -0.05839967	    -15.23745853	     15.27232499	     15.27232499	     17.73753280	     -2.55676366	     -0.79659094	     25.92153123	     -3.27992728	      2.98898794	     24.62516384	     24.62516384	      6.50003666	    -11.17387166	     -0.60093008	     -6.69985928	      2.82657267	      3.80029606	     47.07797325	    -17.60260009	    -13.01621759	     93.05835074	     43.85496289	      0.00000000	      0.00000000	     -5.28491812	     -7.92954569	      1.66261058	     33.35953743	     44.96478744	      0.00000000	      0.00000000
     37.13857143	     -5.38539110	     -3.82750235	      6.33809196	      0.92490869	      0.92222647	      0.45197006	      0.27620808	     -0.19034572	    -15.07074266	     15.50545972	     15.50545972	     17.41368761	     -2.19380708	     -0.76566607	     25.53824548	     -3.37849440	      2.81763802	     24.70540815	     24.70540815	      6.93015328	    -11.49181821	     -0.57574052	     -6.73816629	      2.92478526	      3.94353038	     45.76434468	    -17.09473000	    -12.87002693	     92.21210991	     43.87603845	      0.00000000	      0.00000000	     -4.05513164	     -8.18312860	      1.41901816	     34.13144312	     45.01838771	      0.00000000	      0.00000000
     37.15714286	     -5.51409108	     -3.72402308	      5.85488174	      0.92516568	      0.92301385	      0.44917067	      0.30957420	     -0.78334276	    -15.58060577	     16.08436420	     16.08436420	     17.24093452	     -0.78840181	     -1.11075092	     25.13608690	     -3.17786952	      2.63283847	     24.72391458	     24.72391458	      8.03095560	    -11.62868538	      1.47666496	     -6.55876089	      2.67403086	      3.50482739	     45.27063816	    -15.90161697	    -13.61195226	     87.29316923	     44.14614098	      0.00000000	      0.00000000	     -4.51390280	     -8.22463451	     -2.25344765	     38.56082043	     45.53042214	      0.00000000	      0.00000000
     37.17571429	     -5.58090011	     -3.76968722	      5.36275892	      0.92530215	      0.92386559	      0.44668845	      0.38962211	     -1.07289836	    -15.29792083	     16.72965537	     16.72965537	     16.89311716	     -0.63963488	     -1.25724719	     24.63472474	     -3.22226648	      2.27144560	     24.56629287	     24.56629287	      8.41212476	    -11.67429091	      1.50164238	     -6.53871989	      2.68578907	      3.86060651	     43.66833378	    -15.92217103	    -13.38428992	     85.41964993	     44.20951991	      0.00000000	      0.00000000	     -3.10439293	     -8.48852600	     -2.73391544	     39.36906673	     45.61432377	      0.00000000	      0.00000000
     37.19428571	     -5.63265917	     -3.83128455	      4.90280046	      0.92526477	      0.92471500	      0.44417474	      0.53041705	     -1.40627254	    -15.21387287	     17.49061591	     17.49061591	     16.41996531	     -0.27729234	     -2.03234029	     24.13977671	     -3.25726510	      1.97128019	     24.42578737	     24.42578737	      8.84165006	    -11.76828852	      1.79242004	     -6.49329872	      2.75271456	      3.43449545	     42.92220900	    -15.00426787	    -13.06303691	     81.38158124	     44.38607095	      0.00000000	      0.00000000	     -2.16666824	     -8.76742584	     -3.78747086	     40.47942249	     45.77346576	      0.00000000	      0.00000000
     37.21285714	     -5.56225181	     -4.05213359	      4.50395506	      0.92526178	      0.92576934	      0.44175672	      0.52336817	     -1.49564914	    -14.97848168	     18.17276915	     18.17276915	     16.04918726	     -0.13767587	     -2.13099936	     23.53744212	     -3.45307499	      1.75261813	     24.28275424	     24.28275424	      9.12526564	    -11.88990469	      1.77770808	     -6.74288507	      3.06931659	      3.28674431	     41.08933508	    -14.38120205	    -12.78259282	     80.40792949	     44.40372231	      0.00000000	      0.00000000	     -0.77814215	     -9.19318876	     -3.90988777	     41.06029055	     45.80817319	      0.00000000	      0.00000000
     37.23142857	     -5.68277476	     -3.80358304	      3.97816262	      0.92514649	      0.92651385	      0.43915547	      1.15443547	     -2.31184651	    -14.67760720	     19.75684177	     19.75684177	     15.77841813	     -0.06422779	     -2.89562680	     22.89461050	     -3.18145734	      1.18226997	     23.79662301	     23.79662301	      9.39846739	    -11.81895352	      1.84342692	     -6.58794496	      2.74328803	      3.93011425	     39.13803957	    -14.86988440	    -12.84151229	     76.79566033	     44.53181798	      0.00000000	      0.00000000	      0.76593434	     -9.45596845	     -4.03194415	     41.92025794	     45.84956641	      0.00000000	      0.00000000
     37.25000000	     -5.70507350	     -3.78887479	      3.54316482	      0.92501411	      0.92727677	      0.43655408	      1.60999488	     -2.82825383	    -14.45630244	     21.13472834	     21.13472834	     15.32476339	      0.05753048	     -3.85042333	     22.31763451	     -3.11019675	      0.83176013	     23.55205344	     23.55205344	      9.65341195	    -11.92968446	      1.93420327	     -6.57021457	      2.75447783	      3.93978348	     37.51526373	    -14.64143333	    -12.65696938	     73.09377581	     44.65711421	      0.00000000	      0.00000000	      2.22079978	     -9.84489563	     -3.91482354	     42.32706041	     45.86219783	      0.00000000	      0.00000000
     37.26857143	     -5.62876842	     -3.85944327	      3.17654165	      0.92496759	      0.92806091	      0.43386015	      1.87340110	     -3.21851408	    -14.24077492	     22.27590275	     22.27590275	     14.26090180	     -0.05007619	     -6.24752754	     21.71092844	     -3.08413285	      0.66657655	     23.44492070	     23.44492070	     10.04456775	    -12.15344863	      2.19487846	     -6.55970458	      2.93394779	      3.11765954	     36.88388809	    -13.60423331	    -11.94967892	     67.09065169	     44.86785178	      0.00000000	      0.00000000	      3.40826596	    -10.51347746	     -3.22319951	     41.98566089	     45.81932002	      0.00000000	      0.00000000
     37.28714286	     -5.59953120	     -3.83180776	      2.74427447	      0.92483327	      0.92856931	      0.43116613	      2.54774079	     -3.80750860	    -13.84346118	     24.11726294	     24.11726294	     13.77638302	     -0.21677560	     -7.24241253	     21.14882852	     -2.98240330	      0.31953937	     23.32891466	     23.32891466	     10.37559704	    -12.23981487	      2.21485814	     -6.65787550	      2.99755103	      3.26940567	     34.54654200	    -13.61748530	    -11.65635729	     64.66343352	     44.93880628	      0.00000000	      0.00000000	      4.82880672	    -10.82981232	     -3.19451354	     42.50920148	     45.84174175	      0.00000000	      0.00000000
